<svg xmlns="http://www.w3.org/2000/svg" viewBox="0 0 259.07 74.42"><defs><style>.cls-1,.cls-3{fill:#222323;}.cls-2,.cls-4{fill:#68b659;}.cls-3,.cls-4{font-size:37.16px;}.cls-3{font-family:JosefinSans-SemiBold, Josefin Sans;font-weight:600;}.cls-4{font-family:JosefinSans-Regular, Josefin Sans;}</style></defs><title>logo</title><g id="Ebene_2" data-name="Ebene 2"><g id="Ebene_1-2" data-name="Ebene 1"><path class="cls-1" d="M19.42,53.28h0l-13-20.15V21.85L20.69,44A7.24,7.24,0,0,1,19.42,53.28Z"/><polygon class="cls-2" points="21.82 34.97 6.43 48.09 6.43 21.85 21.82 34.97"/><path class="cls-1" d="M6.32,29.38h5.86V30.5A5.36,5.36,0,0,1,6.94,36H6.32V54.2a6.2,6.2,0,0,1-4.47-1.94A6.72,6.72,0,0,1,0,47.6V17.7a2.45,2.45,0,0,1,2.31-2.57H16a5.79,5.79,0,0,1,4.43,2.4,7,7,0,0,1,1.36,4.2H6.32Z"/><text class="cls-3" transform="translate(41.76 32.1) scale(1.03 1)">Rieger </text><text class="cls-4" transform="translate(41.76 65.57) scale(1.03 1)">Engeneering</text></g></g></svg>